<svg xmlns="http://www.w3.org/2000/svg" xmlns:xlink="http://www.w3.org/1999/xlink" viewBox="0,0,256,256" width="64px" height="64px" fill-rule="nonzero"><g fill="#4e4453" fill-rule="nonzero" stroke="none" stroke-width="1" stroke-linecap="butt" stroke-linejoin="miter" stroke-miterlimit="10" stroke-dasharray="" stroke-dashoffset="0" font-family="none" font-weight="none" font-size="none" text-anchor="none" style="mix-blend-mode: normal"><g transform="scale(4,4)"><path d="M31.03125,2c-15.31641,-0.01562 -28.17969,12.01172 -28.99219,27.48047c-0.83594,15.96875 11.47266,29.64063 27.44141,30.48047c0.51563,0.02734 1.02344,0.03906 1.53516,0.03906c15.30078,0 28.13281,-12.02734 28.94531,-27.48047c0.83984,-15.96875 -11.47266,-29.64062 -27.44141,-30.48047c-0.5,-0.02734 -0.99609,-0.03906 -1.48828,-0.03906zM31.03125,4c0.45703,0 0.91797,0.01172 1.38281,0.03906c14.86719,0.77734 26.32813,13.50781 25.55078,28.375c-0.78125,14.86719 -13.54687,26.33203 -28.37891,25.55078c-14.86719,-0.78125 -26.32812,-13.51172 -25.54687,-28.37891c0.75391,-14.40234 12.75,-25.62891 26.99219,-25.58594zM30.43359,8.00781c-1.8125,0.04297 -3.61719,0.30078 -5.36719,0.76563c-0.53516,0.14453 -0.85156,0.6875 -0.71094,1.22266c0.11719,0.44922 0.52344,0.74219 0.96484,0.74219c0.08594,0 0.17188,-0.00781 0.25781,-0.03125c3.19922,-0.85156 6.60156,-0.93359 9.84375,-0.23828c0.54297,0.11719 1.07031,-0.23047 1.1875,-0.76562c0.11328,-0.54297 -0.23047,-1.07422 -0.76953,-1.1875c-1.77344,-0.38281 -3.59375,-0.55078 -5.40625,-0.50781zM39.78125,9.8125c-0.39062,-0.00391 -0.76562,0.22656 -0.92578,0.60938c-0.22266,0.50391 0.00781,1.09375 0.51563,1.3125c0.69531,0.30078 1.38672,0.64844 2.05078,1.02734c0.15234,0.08984 0.32422,0.12891 0.49219,0.12891c0.34766,0 0.68359,-0.17969 0.86719,-0.5c0.27734,-0.48047 0.10938,-1.08984 -0.37109,-1.36328c-0.72656,-0.41797 -1.48047,-0.79687 -2.24219,-1.12891c-0.12891,-0.05469 -0.25781,-0.08203 -0.38672,-0.08594zM27.63281,18.1875c-4.51562,0.01172 -8.79297,0.58203 -12.22266,1.625c-1.76172,0.54297 -2.76172,2.42578 -2.22656,4.20313c0.54688,1.76172 2.42969,2.75781 4.19531,2.23047c7.5625,-2.30078 20.625,-1.87891 28.55469,2.82031c0.52344,0.3125 1.11328,0.47266 1.70703,0.47266c0.28516,0 0.57031,-0.03516 0.85156,-0.10547c0.86719,-0.22656 1.59375,-0.77344 2.03906,-1.53906c0.94141,-1.60156 0.41016,-3.66797 -1.17969,-4.60547c-6.00391,-3.57031 -14.19141,-5.11719 -21.71875,-5.10156zM27.65234,20.16797c7.17188,-0.01953 14.96875,1.44922 20.67969,4.84375c0.64453,0.37891 0.85938,1.21875 0.47656,1.875c-0.17969,0.30078 -0.46875,0.51953 -0.81641,0.60938c-0.35547,0.09375 -0.72656,0.03516 -1.03906,-0.14844c-5.21094,-3.08984 -12.5,-4.44141 -19.1875,-4.44141c-4.08594,0 -7.94531,0.50781 -10.96484,1.42578c-0.72266,0.21875 -1.48437,-0.19531 -1.70703,-0.89844c-0.21875,-0.72266 0.1875,-1.48828 0.90234,-1.71094c3.26953,-0.99219 7.35156,-1.54297 11.65625,-1.55469zM28.13281,26.89063c-3.86719,-0.08594 -7.72656,0.39063 -11.26172,1.46484c-0.76172,0.22656 -1.38672,0.73828 -1.76172,1.44141c-0.375,0.69531 -0.45312,1.5 -0.23047,2.25391c0.23047,0.76563 0.73828,1.39063 1.44531,1.76563c0.69922,0.37891 1.50391,0.45313 2.25781,0.22266c7.78516,-2.36719 17.80078,-1.20312 24.36719,2.83984c0.47656,0.28906 1.00781,0.42969 1.53516,0.42969c1,0 1.97656,-0.50391 2.54297,-1.41016c0.41797,-0.67969 0.54688,-1.48047 0.35938,-2.25391c-0.1875,-0.77344 -0.66016,-1.42187 -1.32812,-1.82031c-5.01562,-3.08984 -11.48047,-4.78906 -17.92578,-4.93359zM28.09375,28.88281c6.08984,0.13281 12.19141,1.73438 16.92188,4.64844c0.21484,0.12891 0.36719,0.33594 0.42578,0.58203c0.0625,0.25391 0.01953,0.51172 -0.11719,0.73047c-0.28516,0.46484 -0.875,0.60938 -1.33594,0.32813c-4.58984,-2.82422 -10.75,-4.33984 -16.78906,-4.33984c-3.1875,0 -6.33984,0.42578 -9.20312,1.29297c-0.24219,0.07813 -0.50391,0.05078 -0.73047,-0.07031c-0.22656,-0.12109 -0.39453,-0.32812 -0.46875,-0.57031c-0.15234,-0.51953 0.13281,-1.0625 0.64453,-1.21484c3.34766,-1.01562 7,-1.46484 10.65234,-1.38672zM27.15625,35.28125c-2.33203,0.03125 -4.75,0.29688 -7.23437,0.80859c-0.79687,0.16016 -1.50781,0.60547 -1.95312,1.28516c-0.42969,0.66406 -0.57422,1.45313 -0.39062,2.26953c0.34375,1.54297 1.84766,2.59375 3.40625,2.23047c6.26172,-1.45312 12.66797,-0.29687 17.5,1.85547v0.00391c0.40625,0.17578 0.82813,0.26172 1.23828,0.26172c1.08594,-0.00781 2.10547,-0.60937 2.60156,-1.64062c0.67969,-1.42578 0.09375,-3.07422 -1.29297,-3.83203c-4.05469,-2.20703 -8.75391,-3.30078 -13.875,-3.24219zM27.30469,37.28516c4.96484,-0.04687 9.39844,1.01953 12.85547,3.02734c0.42578,0.24609 0.62109,0.73438 0.41797,1.16016c-0.22266,0.46094 -0.81641,0.64844 -1.32422,0.42188c-5.00391,-2.47656 -12.25391,-3.39453 -18.61328,-1.98828c-0.53906,0.12109 -1.05859,-0.20703 -1.17969,-0.75c-0.05078,-0.23047 -0.00781,-0.46875 0.12109,-0.67187c0.14844,-0.22656 0.38281,-0.36719 0.66016,-0.42187c2.4375,-0.50391 4.80469,-0.75391 7.0625,-0.77734zM26.06641,43.84766c-0.55078,0.03516 -0.97266,0.50781 -0.9375,1.05859l0.11719,2c0.02734,0.5 0.42578,0.89453 0.91406,0.9375c0.04688,0.00391 0.09766,0.00391 0.14453,0c0.55078,-0.03516 0.97266,-0.50781 0.9375,-1.05859l-0.12109,-1.99609c-0.03125,-0.55078 -0.50781,-0.98437 -1.05469,-0.94141zM31.52734,44.26563c-0.38281,0.07422 -0.69922,0.375 -0.78125,0.78125l-0.40234,1.95703c-0.11328,0.54297 0.23438,1.07031 0.77734,1.18359c0.03906,0.00781 0.07813,0.01172 0.11719,0.01563c0.49609,0.04297 0.96094,-0.29687 1.0625,-0.79687l0.40234,-1.95703c0.11328,-0.54297 -0.23828,-1.07422 -0.77734,-1.18359c-0.13672,-0.02734 -0.26953,-0.02734 -0.39844,0zM20.75781,44.51563c-0.12891,-0.01172 -0.26562,0.00391 -0.39453,0.04688c-0.52344,0.17578 -0.80859,0.74219 -0.63281,1.26563l0.63281,1.89453c0.12891,0.39453 0.48047,0.64844 0.86719,0.68359c0.12891,0.00781 0.26563,-0.00391 0.39844,-0.04687c0.52344,-0.17578 0.80469,-0.74219 0.63281,-1.26562l-0.63281,-1.89844c-0.12891,-0.39453 -0.48437,-0.65234 -0.87109,-0.67969zM37.09375,46.08203c-0.39062,-0.02344 -0.77734,0.17969 -0.96094,0.55078l-0.89453,1.78906c-0.24609,0.49609 -0.04687,1.09375 0.44922,1.34375c0.11719,0.05859 0.23828,0.08984 0.36328,0.09766c0.39453,0.03516 0.78906,-0.17187 0.97656,-0.54687l0.89453,-1.78906c0.24609,-0.49609 0.04688,-1.09375 -0.44922,-1.33984c-0.12109,-0.0625 -0.25,-0.09766 -0.37891,-0.10547z"></path></g></g></svg>